<mxfile host="app.diagrams.net" modified="2024-02-02T18:02:35.826Z" agent="Mozilla/5.0 (Windows NT 10.0; Win64; x64) AppleWebKit/537.36 (KHTML, like Gecko) Chrome/121.0.0.0 Safari/537.36" version="23.1.0" etag="k6hGH_RcpOGAxDl1u1Ox" type="github">
  <diagram name="PÃ¡gina-1" id="cuOtFzgI9nn-MyRnONir">
    <mxGraphModel>
      <root>
        <mxCell id="0" />
        <mxCell id="1" parent="0" />
      </root>
    </mxGraphModel>
  </diagram>
</mxfile>
